<?xml version="1.0" encoding="UTF-8" standalone="no"?>
<svg
   width="128pt"
   height="128pt"
   version="1.1"
   viewBox="0 0 128 128"
   id="svg4"
   sodipodi:docname="bratlas-pin-o.svg"
   inkscape:version="1.1.2 (b8e25be833, 2022-02-05)"
   xmlns:inkscape="http://www.inkscape.org/namespaces/inkscape"
   xmlns:sodipodi="http://sodipodi.sourceforge.net/DTD/sodipodi-0.dtd"
   xmlns="http://www.w3.org/2000/svg"
   xmlns:svg="http://www.w3.org/2000/svg">
  <defs
     id="defs8" />
  <sodipodi:namedview
     id="namedview6"
     pagecolor="#ffffff"
     bordercolor="#111111"
     borderopacity="1"
     inkscape:pageshadow="0"
     inkscape:pageopacity="0"
     inkscape:pagecheckerboard="1"
     inkscape:document-units="pt"
     showgrid="false"
     inkscape:zoom="4.2128906"
     inkscape:cx="85.333333"
     inkscape:cy="85.333333"
     inkscape:window-width="1920"
     inkscape:window-height="1001"
     inkscape:window-x="-9"
     inkscape:window-y="-9"
     inkscape:window-maximized="1"
     inkscape:current-layer="svg4" />
  <path
     d="m66.434 0c2.3047 0.39844 4.6445 0.67969 6.9102 1.2148 6.6641 1.5664 12.777 4.9023 17.703 9.6523 5.3867 5.0625 9.2188 11.555 11.059 18.715 1.2031 4.1523 1.5586 8.5039 1.0508 12.797-0.46875 3.4023-1.25 6.7539-2.332 10.012-1.6523 4.9297-3.5703 9.7656-5.5938 14.566-2.0234 4.8008-4.1992 9.293-6.3984 13.902-3.1992 6.7422-6.5156 13.488-9.6914 20.262-2.1641 4.6211-4.1992 9.293-6.2344 13.965-1.2812 2.9297-2.4453 5.9023-3.6367 8.8711h0.003907c-0.71094 2.2617-2.75 3.8516-5.1211 3.9922-2.4609 0.14844-4.7344-1.3281-5.6055-3.6367-3.5195-8.0625-6.9883-16.168-10.598-24.191-2.6484-5.8867-5.5312-11.688-8.2695-17.523-4.1094-8.7422-8.168-17.496-11.52-26.586-1.6016-4.1992-2.7461-8.5586-3.418-13.004-0.42188-3.4531-0.30859-6.9492 0.33203-10.367 1.3672-7.7539 5.0195-14.918 10.496-20.574 5.4766-5.6562 12.52-9.543 20.227-11.156 1.8945-0.39844 3.8398-0.61328 5.7344-0.91016zm-2.5586 69.324h-0.003906c8.1992 0.03125 16.078-3.1992 21.895-8.9805 5.8164-5.7773 9.0977-13.633 9.1211-21.832 0.023437-8.1992-3.2148-16.074-9-21.887-5.7852-5.8086-13.645-9.082-21.844-9.0977s-16.07 3.2305-21.875 9.0195c-5.8086 5.793-9.0742 13.652-9.0781 21.852 0.03125 8.1758 3.2891 16.012 9.0625 21.801 5.7734 5.7891 13.594 9.0664 21.77 9.125z"
     fill="#f60"
     id="path2" />
  <text
     xml:space="preserve"
     style="font-style:normal;font-variant:normal;font-weight:normal;font-stretch:normal;font-size:48px;line-height:1.25;font-family:'MS Gothic';-inkscape-font-specification:'MS Gothic, Normal';font-variant-ligatures:normal;font-variant-caps:normal;font-variant-numeric:normal;font-variant-east-asian:normal;letter-spacing:0px;word-spacing:0px;display:inline;stroke-width:0.945924"
     x="32.908226"
     y="54.464096"
     id="text4569"
     transform="scale(0.99190919,1.0081568)"><tspan
       sodipodi:role="line"
       id="tspan4567"
       style="font-style:normal;font-variant:normal;font-weight:normal;font-stretch:normal;font-size:48px;font-family:'MS Gothic';-inkscape-font-specification:'MS Gothic, Normal';font-variant-ligatures:normal;font-variant-caps:normal;font-variant-numeric:normal;font-variant-east-asian:normal;stroke-width:0.945924"
       x="32.908226"
       y="54.464096">ЁЯТе</tspan></text>
</svg>
